<svg id="visual" viewBox="0 0 900 600" width="900" height="600" xmlns="http://www.w3.org/2000/svg" xmlns:xlink="http://www.w3.org/1999/xlink" version="1.1"><rect width="900" height="600" fill="#FFFFFF"></rect><g><g transform="translate(443 485)"><path d="M72.6 -42.1C88.8 -13.8 93.1 21.2 79 45.6C65 70 32.5 83.8 0.8 83.4C-30.9 82.9 -61.7 68.2 -76 43.7C-90.3 19.2 -87.9 -15.1 -72.5 -43C-57.1 -70.8 -28.5 -92.2 -0.2 -92.1C28.2 -92 56.3 -70.4 72.6 -42.1Z" fill="#715DF2"></path></g><g transform="translate(70 264)"><path d="M37.3 -21.1C44.3 -9.4 43.2 7.4 35.6 19.3C28 31.1 14 38 -0.9 38.5C-15.7 39 -31.4 33.1 -38.6 21.5C-45.8 9.9 -44.4 -7.5 -36.6 -19.6C-28.7 -31.8 -14.4 -38.7 0.4 -38.9C15.2 -39.1 30.3 -32.7 37.3 -21.1Z" fill="#715DF2"></path></g><g transform="translate(712 330)"><path d="M54.7 -34.1C65.2 -13.4 64.1 11.5 53 31.8C42 52.2 21 68 -2.2 69.3C-25.4 70.5 -50.7 57.2 -62 36.8C-73.2 16.3 -70.4 -11.3 -57.7 -33.3C-45 -55.4 -22.5 -71.8 -0.2 -71.6C22.1 -71.5 44.2 -54.9 54.7 -34.1Z" fill="#715DF2"></path></g><g transform="translate(302 257)"><path d="M63 -37.8C75 -15.5 73.5 13 60.8 32.8C48.1 52.5 24 63.4 1.7 62.4C-20.7 61.5 -41.4 48.6 -53.5 29.3C-65.7 9.9 -69.3 -16.1 -58.9 -37.4C-48.6 -58.7 -24.3 -75.4 0.6 -75.7C25.5 -76.1 51 -60.1 63 -37.8Z" fill="#715DF2"></path></g><g transform="translate(513 108)"><path d="M57 -31.1C68.9 -12.3 70.2 14.5 59 32.5C47.7 50.4 23.8 59.5 0.4 59.3C-23 59 -46 49.4 -56.4 32C-66.9 14.5 -64.7 -10.8 -53.2 -29.4C-41.7 -48.1 -20.9 -60 0.8 -60.5C22.5 -61 45.1 -50 57 -31.1Z" fill="#715DF2"></path></g><g transform="translate(51 566)"><path d="M48.2 -26.1C57.7 -11.4 57.3 10.8 47.7 25.8C38 40.9 19 48.9 1.2 48.2C-16.6 47.5 -33.2 38.1 -42.3 23.4C-51.4 8.6 -53.1 -11.5 -44.8 -25.6C-36.5 -39.6 -18.3 -47.6 0.5 -47.9C19.4 -48.2 38.7 -40.9 48.2 -26.1Z" fill="#715DF2"></path></g><g transform="translate(784 87)"><path d="M77.7 -47.1C90.4 -22.9 83.1 10.4 66.9 37.1C50.6 63.8 25.3 83.7 -2 84.8C-29.2 85.9 -58.4 68.3 -71 43.7C-83.6 19.2 -79.7 -12.3 -65 -37.5C-50.4 -62.8 -25.2 -81.9 3.7 -84C32.5 -86.2 65 -71.2 77.7 -47.1Z" fill="#715DF2"></path></g><g transform="translate(687 591)"><path d="M64.4 -35.5C76.7 -15.8 75.4 13.5 62.4 36.4C49.4 59.4 24.7 76 -0.1 76.1C-25 76.2 -50 59.7 -61.3 37.8C-72.6 15.8 -70.2 -11.7 -57.7 -31.5C-45.2 -51.2 -22.6 -63.2 1.7 -64.2C26 -65.2 52 -55.1 64.4 -35.5Z" fill="#715DF2"></path></g><g transform="translate(107 33)"><path d="M65.7 -36.9C77.5 -17.4 74.3 11.8 60.9 32.4C47.4 53 23.7 65 0.9 64.5C-21.9 63.9 -43.8 50.9 -55.5 31.3C-67.1 11.8 -68.6 -14.4 -57.7 -33.4C-46.8 -52.4 -23.4 -64.2 1.8 -65.3C26.9 -66.3 53.8 -56.4 65.7 -36.9Z" fill="#715DF2"></path></g></g></svg>